<svg xmlns="http://www.w3.org/2000/svg" width="200" height="200" viewBox="0 0 200 200" fill="none">
  <!-- Server rack background -->
  <rect x="35" y="25" width="130" height="150" rx="6" fill="#2C3E50" stroke="#1A252F" stroke-width="2"/>

  <!-- Server 1 -->
  <rect x="42" y="38" width="116" height="30" rx="4" fill="#34495E" stroke="#5D6D7E" stroke-width="1"/>
  <circle cx="56" cy="53" r="4" fill="#27AE60"/>
  <circle cx="70" cy="53" r="4" fill="#F39C12"/>
  <circle cx="84" cy="53" r="4" fill="#E74C3C"/>
  <rect x="110" y="46" width="40" height="14" rx="2" fill="#1A252F"/>

  <!-- Server 2 -->
  <rect x="42" y="73" width="116" height="30" rx="4" fill="#34495E" stroke="#5D6D7E" stroke-width="1"/>
  <circle cx="56" cy="88" r="4" fill="#27AE60"/>
  <circle cx="70" cy="88" r="4" fill="#27AE60"/>
  <circle cx="84" cy="88" r="4" fill="#F39C12"/>
  <rect x="110" y="81" width="40" height="14" rx="2" fill="#1A252F"/>

  <!-- Server 3 -->
  <rect x="42" y="108" width="116" height="30" rx="4" fill="#34495E" stroke="#5D6D7E" stroke-width="1"/>
  <circle cx="56" cy="123" r="4" fill="#27AE60"/>
  <circle cx="70" cy="123" r="4" fill="#E74C3C"/>
  <circle cx="84" cy="123" r="4" fill="#F39C12"/>
  <rect x="110" y="116" width="40" height="14" rx="2" fill="#1A252F"/>

  <!-- Server 4 -->
  <rect x="42" y="143" width="116" height="24" rx="4" fill="#34495E" stroke="#5D6D7E" stroke-width="1"/>
  <circle cx="56" cy="155" r="3.5" fill="#3498DB"/>
  <circle cx="70" cy="155" r="3.5" fill="#3498DB"/>
  <rect x="95" y="148" width="50" height="14" rx="2" fill="#1A252F"/>
</svg>
